<svg xmlns="http://www.w3.org/2000/svg" width="1200" height="630" viewBox="0 0 1200 630">
  <defs>
    <radialGradient id="halo" cx="50%" cy="50%" r="50%">
      <stop offset="0%" stop-color="#E05252" stop-opacity="0.30"/>
      <stop offset="45%" stop-color="#B8323C" stop-opacity="0.12"/>
      <stop offset="100%" stop-color="#6E1F26" stop-opacity="0"/>
    </radialGradient>
    <linearGradient id="estrella" x1="0" y1="0" x2="1" y2="1">
      <stop offset="0%" stop-color="#E05252"/>
      <stop offset="100%" stop-color="#B8323C"/>
    </linearGradient>
  </defs>

  <rect width="1200" height="630" fill="#090708"/>

  <circle cx="985" cy="150" r="430" fill="url(#halo)"/>

  <circle cx="985" cy="150" r="210" fill="none" stroke="#6E1F26" stroke-width="2" opacity="0.7"/>
  <circle cx="985" cy="150" r="300" fill="none" stroke="#6E1F26" stroke-width="1.5" opacity="0.4"/>

  <g transform="translate(985,150) scale(9) translate(-16,-16)">
    <path d="M16 3 C 16.9 9.8, 22.2 15.1, 29 16 C 22.2 16.9, 16.9 22.2, 16 29 C 15.1 22.2, 9.8 16.9, 3 16 C 9.8 15.1, 15.1 9.8, 16 3 Z" fill="url(#estrella)"/>
  </g>

  <circle cx="140" cy="520" r="1.6" fill="#E7D8C8" opacity="0.5"/>
  <circle cx="320" cy="80" r="1.4" fill="#E7D8C8" opacity="0.4"/>
  <circle cx="480" cy="160" r="1.2" fill="#E7D8C8" opacity="0.35"/>
  <circle cx="700" cy="560" r="1.5" fill="#E7D8C8" opacity="0.45"/>
  <circle cx="860" cy="480" r="1.3" fill="#E05252" opacity="0.55"/>
  <circle cx="240" cy="420" r="1.2" fill="#E05252" opacity="0.4"/>
  <circle cx="560" cy="60" r="1.4" fill="#E7D8C8" opacity="0.3"/>
  <circle cx="1100" cy="540" r="1.5" fill="#E7D8C8" opacity="0.4"/>

  <text x="90" y="205" font-family="Consolas, 'Courier New', monospace" font-size="24" letter-spacing="10" fill="#A69B98">BASE DE CONTROL · EN LÍNEA</text>
  <text x="86" y="330" font-family="Arial, Helvetica, sans-serif" font-size="104" font-weight="bold" fill="#E7D8C8">Lucía Lemes</text>
  <text x="90" y="405" font-family="Consolas, 'Courier New', monospace" font-size="36" fill="#E05252">&lt; Frontend Developer | Full Stack Developer /&gt;</text>
  <text x="90" y="520" font-family="Consolas, 'Courier New', monospace" font-size="22" letter-spacing="6" fill="#A69B98">[ SECTOR: URUGUAY ] · SEÑAL ESTABLE</text>
</svg>
